<svg height="512" viewBox="0 0 128 128" width="512" xmlns="http://www.w3.org/2000/svg"><g><path d="m64 4.557a59.443 59.443 0 1 0 59.443 59.443 59.51 59.51 0 0 0 -59.443-59.443zm0 115.386a55.943 55.943 0 1 1 55.943-55.943 56.006 56.006 0 0 1 -55.943 55.943z"/><path d="m99.342 29.082a1.685 1.685 0 0 0 -.191-.234 1.735 1.735 0 0 0 -.232-.19 49.611 49.611 0 0 0 -69.838 0 1.735 1.735 0 0 0 -.232.19 1.685 1.685 0 0 0 -.191.234 49.609 49.609 0 0 0 0 69.836 1.685 1.685 0 0 0 .191.234 1.744 1.744 0 0 0 .233.19 49.609 49.609 0 0 0 69.836 0 1.744 1.744 0 0 0 .233-.19 1.685 1.685 0 0 0 .191-.234 49.609 49.609 0 0 0 0-69.836zm-66.742 68.788 3.3-3.3a1.75 1.75 0 1 0 -2.471-2.47l-3.3 3.3a46.1 46.1 0 0 1 0-62.79l3.3 3.3a1.75 1.75 0 0 0 2.471-2.482l-3.3-3.3a46.1 46.1 0 0 1 62.79 0l-3.3 3.3a1.75 1.75 0 1 0 2.481 2.472l3.3-3.3a46.1 46.1 0 0 1 0 62.79l-3.3-3.3a1.75 1.75 0 0 0 -2.471 2.482l3.3 3.3a46.1 46.1 0 0 1 -62.79 0z"/><path d="m106.026 67.07h-5.963v-1.95h5.414v-2.465h-5.414v-1.725h5.963v-2.465h-8.718v11.07h8.718z"/><path d="m34.745 65.378-2.289-6.913h-2.965l-2.303 6.913-1.693-6.913h-2.98l3.223 11.07h2.771l2.465-7.009 2.466 7.009h2.771l3.206-11.07h-2.98z"/><path d="m61.591 27.043 4.819 6.542h2.755v-11.07h-2.755v6.542l-4.819-6.542h-2.756v11.07h2.756z"/><path d="m64.685 98.556c-1.643-.354-2.176-.58-2.176-1.256 0-.548.5-.967 1.387-.967a5.307 5.307 0 0 1 3.158 1.176l1.4-1.966a6.692 6.692 0 0 0 -4.48-1.514c-2.529 0-4.238 1.418-4.238 3.544 0 2.224 1.757 2.869 4.125 3.4 1.611.387 2.127.532 2.127 1.193 0 .6-.532 1.015-1.563 1.015a5.657 5.657 0 0 1 -3.641-1.4l-1.547 1.853a7.493 7.493 0 0 0 5.092 1.853c2.739 0 4.43-1.386 4.43-3.609.002-2.078-1.592-2.79-4.074-3.322z"/><path d="m81.975 43.59-22.39 15.556a1.74 1.74 0 0 0 -.439.438l-15.556 22.39a1.75 1.75 0 0 0 2.435 2.436l22.39-15.556a1.74 1.74 0 0 0 .439-.438l15.556-22.39a1.75 1.75 0 0 0 -2.435-2.436zm-17.975 23.41a3 3 0 1 1 3-3 3 3 0 0 1 -3 3zm-5.753.014a6.535 6.535 0 0 0 2.74 2.74l-8.978 6.238zm11.506-6.026a6.535 6.535 0 0 0 -2.74-2.74l8.978-6.238z"/></g></svg>